<svg data-logo="logo" xmlns="http://www.w3.org/2000/svg" viewBox="0 0 133 43">
        <g style="opacity: 1;" id="logogram" transform="translate(0, 1) rotate(0)"><path fill-rule="evenodd" clip-rule="evenodd" d="M10.7544 0.619934C16.2772 0.619934 20.7544 5.09708 20.7544 10.6199V0.619934H30.7544C36.2772 0.619934 40.7544 5.09708 40.7544 10.6199C40.7544 16.1427 36.2772 20.6199 30.7544 20.6199C36.2772 20.6199 40.7544 25.0971 40.7544 30.6199C40.7544 33.3622 39.6505 35.8467 37.8629 37.6533L37.8255 37.691L37.7923 37.724C35.9853 39.5142 33.499 40.6199 30.7544 40.6199C28.0285 40.6199 25.5573 39.5292 23.7534 37.7604C23.73 37.7374 23.7066 37.7142 23.6833 37.691C23.6614 37.6691 23.6396 37.6471 23.6179 37.625C21.8468 35.8208 20.7544 33.3479 20.7544 30.6199C20.7544 36.1427 16.2772 40.6199 10.7544 40.6199C5.23154 40.6199 0.754395 36.1427 0.754395 30.6199V20.6199H10.7544C5.23154 20.6199 0.754395 16.1427 0.754395 10.6199C0.754395 5.09708 5.23154 0.619934 10.7544 0.619934ZM18.7544 10.6199C18.7544 15.0382 15.1727 18.6199 10.7544 18.6199V2.61993C15.1727 2.61993 18.7544 6.20165 18.7544 10.6199ZM38.7544 30.6199C38.7544 26.2016 35.1727 22.6199 30.7544 22.6199C26.3361 22.6199 22.7544 26.2016 22.7544 30.6199H38.7544ZM2.75439 22.6199V30.6199C2.75439 35.0382 6.33611 38.6199 10.7544 38.6199C15.1727 38.6199 18.7544 35.0382 18.7544 30.6199V22.6199H2.75439ZM22.7544 18.6199V2.61993H30.7544C35.1727 2.61993 38.7544 6.20165 38.7544 10.6199C38.7544 15.0382 35.1727 18.6199 30.7544 18.6199H22.7544Z" fill="#2EA351"></path></g>
        <g style="opacity: 1;" id="logotype" transform="translate(47, 14.5)"><path fill="#111111" d="M11.22 14.29Q10.05 14.29 9.12 13.77L9.12 13.77Q8.66 13.53 8.38 13.24L8.38 13.24Q8.07 13.66 7.71 13.89L7.71 13.89Q7.54 14 7.33 14.10L7.33 14.10L6.86 14.10L6.86 10.87L7.62 10.87Q7.86 11.66 8.34 12.35L8.34 12.35Q9.34 13.81 10.84 13.81L10.84 13.81Q11.64 13.81 12.05 13.42Q12.46 13.03 12.46 12.29L12.46 12.29Q12.46 11.66 11.90 11.24Q11.34 10.81 10.14 10.18L10.14 10.18Q9.12 9.67 8.48 9.26Q7.84 8.85 7.40 8.23Q6.95 7.62 6.95 6.78L6.95 6.78Q6.95 5.64 7.93 4.93Q8.91 4.21 10.94 4.21L10.94 4.21Q11.95 4.21 12.80 4.75L12.80 4.75Q13.22 4.99 13.52 5.26L13.52 5.26Q13.77 4.92 14.19 4.61L14.19 4.61Q14.51 4.42 14.57 4.40L14.57 4.40L15.04 4.40L15.04 7.63L14.28 7.63Q14.00 6.82 13.58 6.17L13.58 6.17Q12.63 4.69 11.32 4.69L11.32 4.69Q10.81 4.69 10.45 5.07Q10.09 5.45 10.09 6.02L10.09 6.02Q10.09 6.74 10.69 7.23Q11.30 7.71 12.54 8.34L12.54 8.34Q13.54 8.85 14.14 9.24Q14.74 9.63 15.17 10.20Q15.60 10.77 15.60 11.53L15.60 11.53Q15.60 14.29 11.22 14.29L11.22 14.29ZM24.71 14.19L18.92 3.08L18.92 13.14L20.44 13.71L20.44 14L16.83 14L16.83 13.71L18.35 13.14L18.35 1.27L17.21 0.99L17.21 0.70L19.58 0.70Q20.57 0.70 21.15 1.11Q21.73 1.52 22.15 2.31L22.15 2.31L26.29 10.24L29.46 2.31Q29.79 1.48 30.34 1.09Q30.89 0.70 32.03 0.70L32.03 0.70L34.02 0.70L34.02 0.99L32.88 1.27L32.88 13.43L34.02 13.71L34.02 14L28.61 14L28.61 13.71L29.75 13.43L29.75 3.08L25.28 14.19L24.71 14.19ZM40.67 14.29Q39.42 14.29 38.50 13.83Q37.58 13.37 37.08 12.57Q36.59 11.78 36.59 10.77L36.59 10.77L36.59 4.97L35.26 4.97L35.26 4.50L36.59 4.50L36.59 3.55Q36.59 1.84 38.30 1.84L38.30 1.84L39.63 1.84L39.63 4.50L42.29 4.50L42.29 4.97L39.63 4.97L39.63 10.77Q39.63 12.52 39.99 13.16Q40.35 13.81 41.05 13.81L41.05 13.81Q41.74 13.81 42.25 13.14Q42.76 12.48 42.76 11.34L42.76 11.34L43.24 11.34Q43.24 12.75 42.54 13.52Q41.83 14.29 40.67 14.29L40.67 14.29ZM47.80 14.29Q46.11 14.29 45.20 13.56Q44.28 12.84 44.28 11.72L44.28 11.72Q44.28 10.98 44.61 10.26L44.61 10.26Q44.74 9.91 44.95 9.63L44.95 9.63Q45.73 9.44 46.64 9.29L46.64 9.29Q48.69 8.95 50.27 8.87L50.27 8.87L50.27 8.30Q50.27 6.19 49.76 5.39Q49.24 4.60 48.18 4.60L48.18 4.60Q47.78 4.60 47.50 4.69L47.50 4.69L47.23 4.79L47.23 7.63L46.98 7.69Q46.68 7.73 46.47 7.73L46.47 7.73Q45.82 7.73 45.43 7.34Q45.04 6.95 45.04 6.31L45.04 6.31Q45.04 5.43 45.93 4.82Q46.81 4.21 48.56 4.21L48.56 4.21Q50.04 4.21 51.12 4.74Q52.19 5.26 52.75 6.18Q53.31 7.10 53.31 8.30L53.31 8.30L53.31 13.43L54.45 13.71L54.45 14L52.74 14Q51.60 14 50.97 13.30L50.97 13.30Q50.71 13.01 50.55 12.57L50.55 12.57Q50.29 13.05 49.93 13.43L49.93 13.43Q49.07 14.29 47.80 14.29L47.80 14.29ZM48.56 13.62Q49.26 13.62 49.83 12.86L49.83 12.86Q50.04 12.57 50.27 12.10L50.27 12.10L50.27 9.34Q49.40 9.34 48.60 9.44L48.60 9.44Q48.01 9.52 47.80 9.54L47.80 9.54Q47.70 9.74 47.61 10.11L47.61 10.11Q47.42 10.83 47.42 11.53L47.42 11.53Q47.42 12.59 47.74 13.11Q48.07 13.62 48.56 13.62L48.56 13.62ZM59.29 14.29Q57.60 14.29 56.69 13.56Q55.78 12.84 55.78 11.72L55.78 11.72Q55.78 10.98 56.10 10.26L56.10 10.26Q56.24 9.91 56.44 9.63L56.44 9.63Q57.22 9.44 58.14 9.29L58.14 9.29Q60.19 8.95 61.76 8.87L61.76 8.87L61.76 8.30Q61.76 6.19 61.25 5.39Q60.74 4.60 59.67 4.60L59.67 4.60Q59.28 4.60 58.99 4.69L58.99 4.69L58.72 4.79L58.72 7.63L58.48 7.69Q58.17 7.73 57.96 7.73L57.96 7.73Q57.32 7.73 56.93 7.34Q56.54 6.95 56.54 6.31L56.54 6.31Q56.54 5.43 57.42 4.82Q58.31 4.21 60.05 4.21L60.05 4.21Q61.54 4.21 62.61 4.74Q63.68 5.26 64.24 6.18Q64.80 7.10 64.80 8.30L64.80 8.30L64.80 13.43L65.94 13.71L65.94 14L64.23 14Q63.09 14 62.47 13.30L62.47 13.30Q62.20 13.01 62.05 12.57L62.05 12.57Q61.78 13.05 61.42 13.43L61.42 13.43Q60.57 14.29 59.29 14.29L59.29 14.29ZM60.05 13.62Q60.76 13.62 61.33 12.86L61.33 12.86Q61.54 12.57 61.76 12.10L61.76 12.10L61.76 9.34Q60.89 9.34 60.09 9.44L60.09 9.44Q59.50 9.52 59.29 9.54L59.29 9.54Q59.20 9.74 59.10 10.11L59.10 10.11Q58.91 10.83 58.91 11.53L58.91 11.53Q58.91 12.59 59.24 13.11Q59.56 13.62 60.05 13.62L60.05 13.62ZM67.08 14L67.08 13.71L68.22 13.43L68.22 5.07L67.08 4.79L67.08 4.50L68.79 4.50Q69.92 4.50 70.56 5.22L70.56 5.22Q70.81 5.51 70.98 5.93L70.98 5.93Q71.25 5.43 71.61 5.07L71.61 5.07Q72.46 4.21 73.73 4.21L73.73 4.21Q74.80 4.21 75.64 4.66Q76.49 5.11 76.96 5.83Q77.44 6.55 77.44 7.35L77.44 7.35L77.44 13.43L78.58 13.71L78.58 14L76.11 14Q74.40 14 74.40 12.29L74.40 12.29L74.40 7.35Q74.40 6.15 73.97 5.52Q73.54 4.88 72.97 4.88L72.97 4.88Q72.25 4.88 71.68 5.64L71.68 5.64Q71.44 5.96 71.26 6.40L71.26 6.40L71.26 13.43L72.40 13.71L72.40 14L67.08 14ZM79.72 14L79.72 13.71L80.86 13.43L80.86 5.07L79.72 4.79L79.72 4.50L82.19 4.50Q83.90 4.50 83.90 6.21L83.90 6.21L83.90 13.43L85.04 13.71L85.04 14L79.72 14ZM82.19 3.36Q81.62 3.36 81.24 2.98Q80.86 2.60 80.86 2.03L80.86 2.03Q80.86 1.46 81.24 1.08Q81.62 0.70 82.19 0.70L82.19 0.70Q82.76 0.70 83.14 1.08Q83.52 1.46 83.52 2.03L83.52 2.03Q83.52 2.60 83.14 2.98Q82.76 3.36 82.19 3.36L82.19 3.36Z"></path></g>
        
      </svg>